HIERARCHY
ROOT Hips
{
  OFFSET 0.000000 100.000000 0.000000
  CHANNELS 6 Xposition Yposition Zposition Zrotation Xrotation Yrotation
  JOINT Spine
  {
    OFFSET 0.000000 15.000000 0.000000
    CHANNELS 3 Zrotation Xrotation Yrotation
    JOINT Neck
    {
      OFFSET 0.000000 30.000000 0.000000
      CHANNELS 3 Zrotation Xrotation Yrotation
      JOINT Head
      {
        OFFSET 0.000000 10.000000 0.000000
        CHANNELS 3 Zrotation Xrotation Yrotation
        End Site
        {
          OFFSET 0.000000 15.000000 0.000000
        }
      }
    }
    JOINT LeftShoulder
    {
      OFFSET 15.000000 25.000000 0.000000
      CHANNELS 3 Zrotation Xrotation Yrotation
      JOINT LeftElbow
      {
        OFFSET 28.000000 0.000000 0.000000
        CHANNELS 3 Zrotation Xrotation Yrotation
        JOINT LeftWrist
        {
          OFFSET 24.000000 0.000000 0.000000
          CHANNELS 3 Zrotation Xrotation Yrotation
          End Site
          {
            OFFSET 12.000000 0.000000 0.000000
          }
        }
      }
    }
    JOINT RightShoulder
    {
      OFFSET -15.000000 25.000000 0.000000
      CHANNELS 3 Zrotation Xrotation Yrotation
      JOINT RightElbow
      {
        OFFSET -28.000000 0.000000 0.000000
        CHANNELS 3 Zrotation Xrotation Yrotation
        JOINT RightWrist
        {
          OFFSET -24.000000 0.000000 0.000000
          CHANNELS 3 Zrotation Xrotation Yrotation
          End Site
          {
            OFFSET -12.000000 0.000000 0.000000
          }
        }
      }
    }
  }
  JOINT LeftHip
  {
    OFFSET 10.000000 0.000000 0.000000
    CHANNELS 3 Zrotation Xrotation Yrotation
    JOINT LeftKnee
    {
      OFFSET 0.000000 -42.000000 0.000000
      CHANNELS 3 Zrotation Xrotation Yrotation
      JOINT LeftAnkle
      {
        OFFSET 0.000000 -42.000000 0.000000
        CHANNELS 3 Zrotation Xrotation Yrotation
        End Site
        {
          OFFSET 0.000000 -7.000000 12.000000
        }
      }
    }
  }
  JOINT RightHip
  {
    OFFSET -10.000000 0.000000 0.000000
    CHANNELS 3 Zrotation Xrotation Yrotation
    JOINT RightKnee
    {
      OFFSET 0.000000 -42.000000 0.000000
      CHANNELS 3 Zrotation Xrotation Yrotation
      JOINT RightAnkle
      {
        OFFSET 0.000000 -42.000000 0.000000
        CHANNELS 3 Zrotation Xrotation Yrotation
        End Site
        {
          OFFSET 0.000000 -7.000000 12.000000
        }
      }
    }
  }
}
MOTION
Frames: 23
Frame Time: 0.03333333333333333
50.998458 60.724258 0.020189 -21.708911 70.669991 -22.896487 0.000000 0.000000 0.000000 -25.830608 81.925678 -24.330319 83.167547 84.498055 88.580815 -73.736177 -4.606556 36.022337 6.464018 -23.133673 -13.763999 2.491382 -27.647198 -20.156524 57.747570 10.165062 3.902885 1.070938 -13.087000 0.004672 -4.336713 -28.034857 -2.558674 -38.537074 -9.813373 47.181119 -1.499007 17.366954 3.918051 6.930247 -69.393010 0.881367 26.541336 42.316105 -45.007453 -0.295712 12.099345 8.978825 43.571115 -49.413499 -41.292358
49.259597 61.637984 0.017339 -52.349234 74.703714 -51.670800 0.000000 0.000000 0.000000 -46.803309 82.679268 -44.084660 39.255625 82.439227 42.918297 -75.703396 -3.664008 38.155905 6.774563 -27.234519 -10.871120 2.837451 -29.165470 -15.256924 61.031022 11.387921 8.096685 1.497138 -10.771698 0.334431 -4.120043 -28.191413 -2.104002 -46.720382 -8.781936 52.001619 -1.336426 18.414128 3.360889 40.709387 -73.069913 -35.412669 29.261238 46.713389 -44.340863 -2.087647 15.318689 6.952317 12.686383 -54.699491 1.609507
48.079194 60.426433 0.024119 -67.635164 77.229438 -65.124243 0.000000 0.000000 0.000000 -64.860175 82.402194 -60.540726 5.505686 78.764096 7.115452 -75.914802 -5.330392 39.583773 8.103567 -34.262693 -9.303573 2.689773 -26.271368 -11.051977 66.589084 16.970330 11.171474 1.919081 -11.249932 0.662961 -3.695777 -28.286663 -1.521049 -48.489156 -7.106235 49.358221 -1.484905 22.441526 3.846276 -14.873382 -75.385946 22.454202 42.169077 45.635279 -33.107852 -6.795457 24.893862 -0.653854 -21.946310 -61.317774 41.070946
48.163262 60.822402 0.012909 -79.066948 78.796969 -75.090744 0.000000 0.000000 0.000000 -74.180857 81.392078 -67.852712 -24.034486 75.353247 -22.934833 -75.824120 -9.086238 41.205036 8.627778 -36.347422 -7.263785 2.682807 -25.557623 -8.224193 70.530050 23.206330 15.088433 2.167950 -10.457452 0.867815 -3.309433 -28.545590 -0.833636 -46.668852 -5.088112 48.217048 -1.628333 23.623869 2.144991 -51.793424 -75.111279 61.635200 46.222214 48.830061 -35.630545 -6.027166 23.392106 -1.954071 -46.715912 -65.994365 68.271880
48.460279 60.766581 0.009353 -85.707362 79.894021 -80.674429 0.000000 0.000000 0.000000 -77.244411 79.816674 -68.724736 -45.341272 72.364019 -43.660008 -75.304714 -12.265862 43.175398 8.471111 -35.893126 -5.844107 3.784333 -28.627572 -6.676422 72.864457 28.893248 17.315118 1.982392 -11.181482 1.165654 -2.519379 -27.216260 0.107582 -44.329483 -4.726029 46.493668 -1.733849 24.810171 0.297246 -77.419049 -75.372293 88.086389 44.004507 51.196162 -43.369246 -4.413176 18.669906 -2.297965 -69.642418 -68.542183 92.081465
48.651102 60.633938 0.008062 -89.290492 80.601383 -83.442742 0.000000 0.000000 0.000000 -77.204230 77.749337 -66.405051 -61.475615 69.558656 -58.382183 -74.403179 -16.423028 44.977775 7.660015 -35.916554 -4.602712 4.488382 -29.661943 -4.978462 74.225079 34.744183 19.603107 1.415443 -10.765530 1.267826 -1.903326 -28.202566 1.582094 -46.754163 -6.174957 45.109452 -4.524639 31.599764 -2.326751 -78.961627 -72.692170 98.821024 49.844507 52.116769 -35.370296 -3.322149 19.051144 -4.948425 -83.961810 -69.865127 107.169713
48.950659 61.858012 0.007576 -92.277616 80.887786 -85.653905 0.000000 0.000000 0.000000 -78.633118 75.450615 -65.296207 -74.197463 66.090531 -69.241273 -73.591090 -22.505391 46.425106 6.990436 -34.631543 -3.419373 4.922621 -29.484826 -3.531921 74.700080 41.591039 22.349589 1.198084 -9.734672 1.309612 -1.159922 -27.656962 2.537904 -56.452054 -9.484322 44.561529 -17.820181 40.269403 -17.116293 -75.410762 -69.943337 104.206964 55.448628 47.754391 -19.772177 -7.553097 30.267272 -15.875814 -95.277038 -70.549169 117.483964
50.663985 63.551463 0.007072 -95.698376 81.043995 -88.512046 0.000000 0.000000 0.000000 -78.607598 72.140234 -62.059523 -83.988834 61.463984 -76.326357 -63.032667 -24.979271 41.246557 6.720543 -33.619896 -2.700116 5.901286 -31.109651 -2.881433 84.471159 49.545054 32.714474 1.004147 -8.561374 1.258645 -1.577901 -26.969528 3.186908 -62.836906 -15.020700 47.589462 -23.883690 42.047330 -24.073609 -69.397894 -66.171632 106.613087 54.528504 47.908597 -11.253512 -4.171792 35.390568 -18.797674 -102.593802 -72.647480 123.505535
51.002696 62.887970 0.008792 -91.732638 80.857936 -83.884696 0.000000 0.000000 0.000000 -78.318759 68.234629 -58.160406 -90.785977 56.772212 -79.458636 -51.870227 -24.352724 34.163774 6.107409 -32.409326 -1.927287 6.282222 -31.397895 -2.044490 94.365936 54.772846 42.140993 1.134454 -6.630164 0.996914 -1.834595 -27.640159 3.351569 -70.279433 -19.455751 54.248714 -21.243956 36.582190 -22.446606 -64.981906 -60.468921 106.551444 52.380243 49.911235 -6.683088 -1.812643 29.109589 -15.249565 -85.472896 -72.025229 107.608525
51.687026 63.947448 0.011469 -87.507943 80.582954 -79.120469 0.000000 0.000000 0.000000 -76.470269 66.923656 -55.366230 -95.803312 54.824978 -84.115248 -40.920644 -23.081431 27.096387 5.740235 -34.887568 -1.128714 5.910236 -27.941161 -0.830829 104.166294 60.885435 52.429923 2.402389 -6.770904 1.077145 -1.105921 -25.621517 2.540241 -72.277031 -23.861863 60.448242 -16.706666 30.509714 -19.288674 -61.096487 -58.648052 102.902754 46.266313 52.183526 -4.142203 -1.159322 25.041630 -13.074661 -64.442608 -68.097554 87.952910
50.232500 57.019134 0.022542 -69.888840 65.554223 -57.783828 0.000000 0.000000 0.000000 -74.283034 64.899527 -51.823947 -86.992311 49.857636 -82.693335 -31.528423 -20.841494 20.888618 5.383672 -33.126490 -0.508805 6.966163 -26.942372 0.109838 98.022009 65.335338 56.108266 2.977353 -4.887892 1.903969 -0.660670 -18.035586 1.867435 -78.819373 -31.704787 59.448271 -15.448902 39.480853 -32.342096 -56.716096 -59.453887 94.602537 62.877739 48.282453 1.170805 -2.885854 33.686620 -28.895797 -52.591602 -63.003979 71.890733
47.473682 55.841158 0.014450 -57.346753 50.869712 -41.702791 0.000000 0.000000 0.000000 -73.203812 63.773176 -49.915163 -79.482362 46.436150 -80.553989 -24.175174 -19.515947 16.047290 5.105027 -30.837140 -0.122954 7.339911 -25.027948 0.719918 74.878646 65.443497 43.440040 3.525338 -2.659494 3.735672 -0.362891 -11.655199 1.876184 -82.618618 -37.573210 51.673819 -7.078641 43.551463 -32.432186 -46.898795 -59.210264 80.266922 73.306114 40.934435 9.544243 -9.351083 43.062952 -46.977428 -46.482089 -55.989844 63.178502
46.028379 55.252941 0.010925 -48.861599 40.602755 -30.494963 0.000000 0.000000 0.000000 -69.227367 63.432813 -46.543426 -68.445829 45.022757 -74.079358 -18.728858 -17.405436 12.355254 4.713963 -26.994260 0.040425 8.655484 -25.795487 0.652661 54.040181 57.557078 31.905842 2.913307 -0.017472 5.241671 1.016542 -9.010840 4.763080 -75.996393 -49.597215 40.296031 -18.999626 51.035060 -50.529629 -43.214735 -61.015162 74.354291 79.766513 33.777630 15.381793 -14.580148 47.760899 -62.362896 -43.353124 -54.240566 57.840358
45.452169 55.518411 0.011149 -43.574496 30.472511 -21.920366 0.000000 0.000000 0.000000 -64.820443 63.018110 -42.915157 -55.741684 42.552866 -64.982306 -16.404357 -21.230842 10.673593 4.326683 -24.373419 0.504245 8.101674 -23.231036 1.491659 38.861355 50.793554 23.869250 2.295552 1.620356 6.029413 1.071657 -6.028012 4.910571 -44.852418 -60.768482 7.525702 -27.437658 55.938332 -60.619666 -37.673491 -59.649406 66.450090 83.444008 31.297804 21.021474 -20.209863 52.429928 -74.672256 -44.346263 -52.756765 57.548116
45.182592 55.862282 0.011855 -40.512191 23.896076 -16.114380 0.000000 0.000000 0.000000 -61.044099 61.992733 -39.450460 -48.451422 41.552720 -60.523327 -14.425303 -21.891398 8.781909 3.875724 -20.717349 0.746663 8.383815 -23.220903 2.123491 29.329265 51.212147 19.993331 1.773450 1.900998 5.688686 1.202955 -4.046039 5.559288 -14.990080 -68.055649 -23.495261 -26.981815 57.713131 -59.596623 -30.494360 -55.670025 56.764236 86.282899 29.429007 23.695551 -22.725913 56.309594 -81.643094 -55.725440 -54.291045 66.932369
45.795314 56.283619 0.013746 -39.711835 10.484336 -9.118950 0.000000 0.000000 0.000000 -54.287042 61.803601 -34.642679 -38.946394 40.476628 -52.101623 -11.783952 -15.409579 5.642365 3.331439 -16.241490 0.928695 7.997284 -20.804834 2.783998 11.979749 50.524450 11.134532 -4.643109 8.944572 5.713317 1.045270 -3.137114 4.337110 -11.232112 -56.218248 -24.094103 -13.981370 64.285810 -45.321825 -26.223867 -49.455389 44.411514 76.066026 13.264790 40.493149 -18.998033 62.967431 -81.854480 -54.275839 -51.461571 62.042864
46.182093 56.074563 0.017718 -39.862497 -3.844727 -2.159591 0.000000 0.000000 0.000000 -47.634958 61.486269 -29.994534 -31.976996 40.557458 -45.430808 -10.158347 -10.503608 3.397145 3.056691 -13.971635 1.164406 7.340242 -17.399445 3.172589 0.418671 46.853747 5.371906 -11.657002 17.061803 2.371855 0.947996 -2.561788 3.933044 -7.395787 -48.539314 -25.190154 -4.540105 67.921961 -33.749886 -20.914602 -42.695209 33.683890 68.538404 4.688500 54.205893 -13.998949 68.924469 -77.803002 -52.822301 -51.484211 57.365819
46.471278 55.380762 0.021791 -39.788945 -16.659535 3.773967 0.000000 0.000000 0.000000 -42.272744 59.967208 -25.863636 -27.780408 41.384995 -41.692476 -9.377705 -6.676362 1.688231 2.873101 -11.932070 1.276674 7.033619 -15.163243 3.372251 -8.120110 45.780556 1.025293 -16.364356 24.787984 -1.011000 1.021869 -2.384309 3.806293 -4.085260 -43.400963 -27.592424 2.171014 62.503475 -22.088730 -15.989776 -33.546004 23.762407 62.378061 0.204944 65.078521 25.708113 67.017535 -33.322532 -47.515843 -49.564822 45.678063
46.552180 54.980102 0.023500 -39.636006 -27.661492 8.738207 0.000000 0.000000 0.000000 -37.608061 57.315119 -21.993820 -25.900615 43.140647 -40.750980 -10.104464 -0.160624 -0.348376 2.341061 -8.453440 0.943380 8.595825 -16.299313 2.360084 -11.050091 36.998331 -2.054620 -39.487059 17.135968 -5.212788 0.998813 -1.675324 2.786347 -1.476650 -38.377261 -28.683085 8.399568 58.755481 -11.459736 -11.473117 -27.111180 17.192596 52.768627 -6.734892 72.837979 36.601035 59.378855 -12.219604 -38.819272 -43.553084 31.921351
46.829095 54.817560 0.023479 -39.421090 -36.446846 12.625482 0.000000 0.000000 0.000000 -33.027652 55.019566 -18.528127 -23.563288 44.700072 -39.272809 -10.736167 3.919854 -1.644374 2.248044 -4.917988 0.582373 11.870642 -18.872537 -0.270385 -12.960183 30.191127 -3.805499 -58.571256 5.072992 6.506291 -0.484867 -1.549598 2.279492 1.711790 -36.664247 -31.340912 9.500676 52.458624 -5.298025 -8.550577 -23.482954 12.144177 49.381064 -0.502749 75.826078 26.155083 44.904268 -8.333416 -27.211304 -31.553912 22.447412
45.623441 52.789955 0.010635 -37.705209 -35.276361 11.869352 0.000000 0.000000 0.000000 -29.340777 55.141247 -16.263784 -21.320957 45.975223 -37.215488 -10.461827 3.246438 -1.160683 2.283621 -5.062687 0.592704 11.352464 -19.798566 0.160567 -13.177508 19.349423 -3.070714 -72.214003 -10.478210 22.113230 -6.850849 -9.553565 1.690973 -8.021507 -44.494132 -24.197516 -4.179317 14.226184 -10.739739 -6.062962 -5.050941 19.877269 54.215674 19.513055 80.516319 17.520706 36.697271 -7.533299 -18.526235 -24.554667 16.865426
47.117119 52.983263 0.007393 -36.416027 -40.090408 13.231025 0.000000 0.000000 0.000000 -26.217866 54.521864 -14.240499 -18.080484 45.129619 -32.868421 -9.941094 2.149621 -1.652642 1.868470 -3.619892 0.514229 10.820400 -16.653356 1.006032 -12.637680 13.678531 -3.181783 -82.429390 -21.743992 32.176319 -8.163828 -10.005247 1.471626 -9.274919 -53.926581 -24.961124 -3.067535 8.845661 -6.940502 -3.386608 5.523283 12.838908 60.583935 31.923125 84.691965 12.725390 29.955357 -4.138655 -13.234629 -18.324216 11.252985
46.903794 50.123644 0.023994 -33.646420 -39.959886 12.251093 0.000000 0.000000 0.000000 -23.925986 54.404130 -12.834668 -16.529217 45.602369 -29.359276 -10.849296 2.902443 -2.235151 1.826851 -2.615866 0.460287 10.924909 -14.715113 1.064789 -12.111248 12.945107 -2.615624 -88.956536 -13.590629 22.346421 -14.807046 -4.513586 3.305917 -5.891114 -43.306092 -22.840869 -2.198324 8.221768 -4.661257 -2.338890 3.637310 9.016861 59.361964 29.333623 89.868372 33.964360 34.994664 24.618563 -30.414483 -23.495682 9.508414
